<svg xmlns="http://www.w3.org/2000/svg" xmlns:xlink="http://www.w3.org/1999/xlink" width="64" height="64" viewBox="0 0 64 64"><defs><path id="a" d="M.06 64V.04H64V64z"/></defs><g fill="none" fill-rule="evenodd"><mask id="b" fill="#fff"><use xlink:href="#a"/></mask><path fill="#DEDECA" d="M64 32c0 17.673-14.327 32-32 32C14.327 64 0 49.673 0 32 0 14.327 14.327 0 32 0c17.673 0 32 14.327 32 32" mask="url(#b)"/><path fill="#B3B2A4" d="M18 52h-2a2 2 0 01-2-2v-2.343V48a2 2 0 002 2h2a2 2 0 002-2v2a2 2 0 01-2 2M48 52h-2a2 2 0 01-2-2v-2a2 2 0 002 2h2a2 2 0 002-2v2a2 2 0 01-2 2"/><path fill="#4C5665" d="M20 48a2 2 0 01-2 2h-2a2 2 0 01-2-2V37a2 2 0 012-2h2a2 2 0 012 2v11M50 48a2 2 0 01-2 2h-2a2 2 0 01-2-2V37a2 2 0 012-2h2a2 2 0 012 2v11"/><path fill="#B3B2A4" d="M14.009 31.339A6.336 6.336 0 0 1 14 31l.039-.392.082-.407c.07.349.171.686.3 1.01-.14.038-.276.081-.412.128m35.982 0a6.543 6.543 0 0 0-.412-.128c.118-.296.212-.604.282-.921L50 31c0 .114-.003.227-.009.339m-31.744-1.375a1.96 1.96 0 0 1-.24-.8l1.941-9.708c.211-.765.564-1.48.931-1.889.188-.214.367-.351.536-.435.172-.084.335-.13.585-.132h20c.25.002.413.048.585.132.25.123.539.38.814.807.264.407.495.952.653 1.52l1.941 9.706a1.96 1.96 0 0 1-.24.799l-1.7-8.503C43.833 20.674 43.222 19 42 19H22c-1.222 0-1.833 1.674-2.053 2.461l-1.7 8.503"/><path fill="#B85756" d="M48 29h-2a1.984 1.984 0 0 1-.586 1.414A1.984 1.984 0 0 1 44 31H20a1.984 1.984 0 0 1-1.414-.586A1.984 1.984 0 0 1 18 29h-2l1.961.392 2-10L18 19l1.931.521c.208-.79.571-1.533.948-1.954.188-.214.367-.351.536-.435.172-.084.335-.13.585-.132h20c.25.002.413.048.585.132.25.123.539.38.814.807.273.421.512.991.67 1.582L46 19l-1.961.392 2 10L48 29h-2 2l1.961-.392-2.013-10.066-.017-.063c-.332-1.21-.864-2.467-1.8-3.546a5.77 5.77 0 0 0-1.754-1.377A5.276 5.276 0 0 0 42 13H22a5.276 5.276 0 0 0-2.377.556c-1.059.533-1.828 1.354-2.384 2.216-.557.867-.923 1.797-1.17 2.707l-.017.063L14 28.802V29a6 6 0 0 0 6 6h24a6 6 0 0 0 6-6v-.198l-.039-.194L48 29"/><path fill="#B3B2A4" d="M20 44h24v-7H20z"/><path fill="#414A55" d="M20 44h-4c-1.103 0-2-.897-2-2v-5c0-.956.675-1.758 1.573-1.954A5.987 5.987 0 0020 37v7M48 44h-4v-7a5.987 5.987 0 004.427-1.954A2.003 2.003 0 0150 37v5c0 1.103-.897 2-2 2"/><path fill="#939388" d="M44 37H20a2 2 0 0 0-2-2h28a2 2 0 0 0-2 2"/><path fill="#3A4048" d="M20 37a5.987 5.987 0 01-4.427-1.954c.138-.03.28-.046.427-.046h2a2 2 0 012 2M44 37a2 2 0 012-2h2c.147 0 .289.016.427.046A5.987 5.987 0 0144 37"/><path fill="#B3B2A4" d="M20 48h24v-4H20v4zm30-.343V37a2 2 0 0 0-1.573-1.954 5.982 5.982 0 0 0 1.564-3.707A6.01 6.01 0 0 1 54 37v5a6.01 6.01 0 0 1-4 5.657zm-36 0A6.01 6.01 0 0 1 10 42v-5a6.012 6.012 0 0 1 4.009-5.661 5.982 5.982 0 0 0 1.564 3.707A2 2 0 0 0 14 37v10.657z"/><path fill="#414A55" d="M20 48h-4a5.972 5.972 0 01-2-.343V37v5c0 1.103.897 2 2 2h4v4M48 48h-4v-4h4c1.103 0 2-.897 2-2v5.657A5.972 5.972 0 0148 48m2-11"/><path fill="#939388" d="M15.573 35.046a5.982 5.982 0 0 1-1.564-3.707c.136-.047.272-.09.412-.128A6.002 6.002 0 0 0 20 35h24a6.002 6.002 0 0 0 5.579-3.789c.139.038.276.081.412.128a5.982 5.982 0 0 1-1.564 3.707A1.995 1.995 0 0 0 48 35H16c-.147 0-.29.016-.427.046"/><path fill="#3A4048" d="M15.573 35.046c.137-.03.28-.046.427-.046h2-2c-.147 0-.289.016-.427.046M48.427 35.046A2.002 2.002 0 0048 35h-2 2c.147 0 .29.016.427.046"/><path fill="#974D4C" d="M44 35H20a6.002 6.002 0 0 1-5.579-3.789A5.963 5.963 0 0 1 16 31h32c.546 0 1.076.073 1.579.211A6.002 6.002 0 0 1 44 35"/><path fill="#B85756" d="M52 40a4 4 0 0 1-4 4H16a4 4 0 0 1-4-4v-5a4 4 0 0 1 4-4h32a4 4 0 0 1 4 4v5"/><path fill="#B85756" d="M52 40h-2a1.984 1.984 0 0 1-.586 1.414A1.984 1.984 0 0 1 48 42H16a1.984 1.984 0 0 1-1.414-.586A1.984 1.984 0 0 1 14 40v-5a1.984 1.984 0 0 1 .586-1.414A1.984 1.984 0 0 1 16 33h32a1.984 1.984 0 0 1 1.414.586c.365.368.585.855.586 1.414v5h4v-5a6 6 0 0 0-6-6H16a6 6 0 0 0-6 6v5a6 6 0 0 0 6 6h32a6 6 0 0 0 6-6h-2"/><path fill="#F0CB83" d="M21 38a4 4 0 1 1-8 0 4 4 0 0 1 8 0"/><path fill="#B85756" d="M21 38h-1a3.005 3.005 0 0 1-3 3 3.005 3.005 0 0 1-3-3 3.005 3.005 0 0 1 3-3 3.005 3.005 0 0 1 3 3h2a5 5 0 1 0-10.001.001A5 5 0 0 0 22 38h-1"/><path fill="#F0CB83" d="M51 38a4 4 0 1 1-8 0 4 4 0 0 1 8 0"/><path fill="#B85756" d="M51 38h-1a3.005 3.005 0 0 1-3 3 3.004 3.004 0 0 1-3-3 3.004 3.004 0 0 1 3-3 3.005 3.005 0 0 1 3 3h2a5 5 0 1 0-10.001.001A5 5 0 0 0 52 38h-1"/></g></svg>