<svg xmlns="http://www.w3.org/2000/svg" width="64" height="64"><g transform="translate(0 -1130.362)"><circle cx="32" cy="1162.362" r="31.5" fill="#34485c" stroke="#34485c" stroke-dashoffset="1.5" stroke-linecap="round" stroke-linejoin="round" color="#000" overflow="visible"/><g transform="translate(-42.761 84)"><path fill="none" stroke="#cad1d8" d="M73.548 1084.758v22.604m.785-23.114 10.878 18.84m-12.448-18.84-10.877 18.84"/><path fill="#576d7e" d="M63.578 1103.736a1.813 1.813 0 1 0-3.626 0h1.813zm11.783 3.626a1.813 1.813 0 0 0-3.626 0h1.813zm11.784-3.626a1.813 1.813 0 1 0-3.626 0h1.813z"/><rect width="3.626" height="7.252" x="71.735" y="1076.543" fill="#576d7e" rx="0" ry="0"/><rect width="3.626" height="5.097" x="1081.982" y="-76.097" fill="#576d7e" rx="0" ry="0" transform="rotate(90)"/><rect width="19.035" height="10.877" x="-201.532" y="1051.34" fill="#4bbfeb" rx="0" ry="0" transform="rotate(-15)"/><rect width="19.035" height="7.252" x="-217.848" y="1053.153" fill="#4bbfeb" rx="0" ry="0" transform="rotate(-15)"/><rect width="19.035" height="3.626" x="-226.912" y="1054.966" fill="#4bbfeb" rx="0" ry="0" transform="rotate(-15)"/><rect width="19.035" height="1.782" x="-201.532" y="1051.34" fill="#78c8f0" rx="0" ry="0" transform="rotate(-15)"/><rect width="16.316" height="1.782" x="-217.848" y="1053.153" fill="#78c8f0" rx="0" ry="0" transform="rotate(-15)"/><rect width="1.813" height="14.503" x="-183.403" y="1049.527" fill="#576d7e" rx=".906" ry="1.036" transform="rotate(-15)"/><rect width="1.813" height="7.313" x="-228.725" y="1053.122" fill="#576d7e" rx=".906" ry=".522" transform="rotate(-15)"/><rect width="9.064" height="1.782" x="-226.912" y="1054.966" fill="#78c8f0" rx="0" ry="0" transform="rotate(-15)"/></g><path fill="#fff" d="m40.121 1140.245-.62-2.38-2.38-.62 2.38-.62.62-2.38.62 2.38 2.38.62-2.38.62zM15 1149.354l-.413-1.586-1.587-.414 1.587-.413.413-1.587.414 1.587 1.586.413-1.586.414zM11.871 1177.242l-.568-2.182-2.182-.568 2.182-.569.568-2.181.568 2.181 2.182.569-2.182.568zM49 1164.862l-.517-1.983-1.983-.517 1.983-.517.517-1.983.516 1.983 1.984.517-1.984.517zM16.502 1143.363l-.31-1.19-1.19-.31 1.19-.31.31-1.19.31 1.19 1.19.31-1.19.31zM53.123 1181.242l-.388-1.487-1.487-.388 1.487-.388.388-1.487.387 1.487 1.488.388-1.488.387z" color="#000" overflow="visible"/></g></svg>