<svg xmlns="http://www.w3.org/2000/svg" enable-background="new 0 0 32 32" viewBox="0 0 32 32"><circle cx="13.562" cy="24.304" r="1.5" fill="#c7c5cd" transform="rotate(-45.001 13.562 24.304)"/><circle cx="21.562" cy="24.304" r="1.5" fill="#c7c5cd" transform="rotate(-45.001 21.562 24.305)"/><path fill="#dbd9dd" d="M14.623 23.244l-2.121 2.121c.586.586 1.536.586 2.121 0S15.209 23.829 14.623 23.244zM22.623 23.244l-2.121 2.121c.586.586 1.536.586 2.121 0S23.209 23.829 22.623 23.244z"/><path fill="#e1e2e7" d="M23.866,9.727L9.651,8.81l1.411,8.994h11.219c0.459,0,0.859-0.312,0.97-0.758l1.52-6.079      C24.923,10.362,24.489,9.767,23.866,9.727z"/><polygon fill="#c7c5cd" points="9.651 8.81 11.062 17.804 12.197 17.804 20.492 9.509"/><path fill="#787882" d="M22.282,18.304H11.062c-0.276,0-0.5-0.224-0.5-0.5s0.224-0.5,0.5-0.5h11.219      c0.23,0,0.43-0.155,0.485-0.378l1.52-6.079c0.049-0.197-0.03-0.346-0.082-0.416c-0.051-0.071-0.168-0.191-0.372-0.205      L9.619,9.309C9.344,9.291,9.135,9.053,9.152,8.777s0.24-0.491,0.531-0.467l14.214,0.917c0.446,0.029,0.853,0.253,1.115,0.613      s0.352,0.815,0.243,1.248l-1.52,6.079C23.57,17.837,22.972,18.304,22.282,18.304z"/><path fill="#787882" d="M20.062 18.304c-.276 0-.5-.224-.5-.5v-8c0-.276.224-.5.5-.5.276 0 .5.224.5.5v8C20.562 18.08 20.339 18.304 20.062 18.304zM15.062 18.304c-.276 0-.5-.224-.5-.5V9.179c0-.276.224-.5.5-.5.276 0 .5.224.5.5v8.625C15.562 18.08 15.339 18.304 15.062 18.304z"/><path fill="#787882" d="M23.563 15.789c-.012 0-.024 0-.036-.001l-13.202-.945c-.275-.021-.483-.26-.463-.535.02-.275.267-.487.534-.463l13.202.945c.275.021.483.26.463.535C24.042 15.588 23.823 15.789 23.563 15.789zM24.063 12.789c-.012 0-.023 0-.035-.001l-14.055-.97c-.276-.02-.484-.258-.465-.533.02-.275.262-.49.533-.465l14.055.97c.276.02.484.258.465.533C24.543 12.587 24.323 12.789 24.063 12.789z"/><path fill="#787882" d="M24.937 23.304H10.423c-.616 0-1.162-.369-1.392-.94-.229-.57-.091-1.215.353-1.641l.962-.924c.116-.111.171-.272.148-.431L8.69 6.733c-.035-.245-.248-.43-.495-.43H6.062c-.276 0-.5-.224-.5-.5s.224-.5.5-.5h2.133c.742 0 1.38.554 1.485 1.289l1.805 12.634c.068.476-.098.96-.447 1.294l-.961.923c-.226.218-.147.474-.118.547.03.073.15.313.464.313h14.514c.276 0 .5.224.5.5S25.214 23.304 24.937 23.304zM13.437 26.304H9.5c-.276 0-.5-.224-.5-.5s.224-.5.5-.5h3.937c.276 0 .5.224.5.5S13.714 26.304 13.437 26.304zM7.5 26.27c-.13 0-.26-.06-.35-.149C7.05 26.03 7 25.899 7 25.77c0-.14.05-.27.15-.359.18-.181.52-.181.7 0C7.95 25.51 8 25.64 8 25.77s-.05.25-.15.351c-.04.05-.1.08-.16.109C7.63 26.25 7.57 26.27 7.5 26.27zM17 26.27c-.07 0-.13-.02-.19-.04-.06-.029-.12-.06-.16-.109-.1-.09-.15-.221-.15-.351 0-.14.05-.26.15-.359.18-.181.52-.181.7 0 .1.1.15.22.15.359 0 .13-.05.261-.15.351C17.26 26.21 17.13 26.27 17 26.27zM21.437 26.304H18.5c-.276 0-.5-.224-.5-.5s.224-.5.5-.5h2.937c.276 0 .5.224.5.5S21.714 26.304 21.437 26.304z"/><path fill="#787882" d="M13.562 26.304c-1.103 0-2-.897-2-2s.897-2 2-2c1.103 0 2 .897 2 2S14.666 26.304 13.562 26.304zM13.562 23.304c-.551 0-1 .448-1 1s.449 1 1 1c.551 0 1-.448 1-1S14.114 23.304 13.562 23.304zM21.562 26.304c-1.103 0-2-.897-2-2s.897-2 2-2c1.103 0 2 .897 2 2S22.666 26.304 21.562 26.304zM21.562 23.304c-.551 0-1 .448-1 1s.449 1 1 1c.551 0 1-.448 1-1S22.114 23.304 21.562 23.304z"/></svg>